<svg xmlns="http://www.w3.org/2000/svg" width="718.667" height="718.667" preserveAspectRatio="xMidYMid meet" version="1.0" viewBox="0 0 539 539"><metadata>Created by potrace 1.14, written by Peter Selinger 2001-2017</metadata><g fill="#000" stroke="none"><path d="M3566 4960 c1 -237 -1 -430 -4 -430 -2 0 -32 27 -66 59 -33 32 -84 81 -112 107 -46 44 -237 225 -457 434 -112 105 -160 151 -193 182 l-30 27 -28 -24 c-16 -14 -66 -60 -111 -103 -110 -104 -352 -332 -395 -372 -19 -18 -93 -88 -165 -155 -71 -68 -150 -142 -175 -165 -25 -23 -103 -97 -175 -165 -71 -67 -148 -139 -170 -159 -76 -71 -310 -291 -391 -368 -44 -43 -90 -86 -101 -96 -12 -10 -90 -83 -173 -162 -84 -80 -167 -158 -185 -175 -17 -16 -82 -77 -143 -135 -62 -57 -112 -107 -112 -111 0 -5 29 -58 65 -120 36 -61 80 -137 97 -168 17 -31 33 -59 37 -63 4 -5 67 53 141 127 74 74 137 135 140 135 3 0 5 -686 5 -1525 0 -1009 3 -1525 10 -1526 25 -3 3632 -5 3645 -1 13 3 15 180 14 1528 0 838 1 1524 3 1524 2 0 63 -58 136 -130 73 -71 135 -131 139 -132 7 -3 208 337 208 351 0 4 -60 63 -132 131 -141 133 -250 236 -388 367 -47 45 -101 96 -120 113 -19 18 -103 97 -185 175 l-150 143 0 656 0 656 -240 0 -240 0 1 -430z" transform="translate(0.000000,539.000000) scale(0.100000,-0.100000)"/></g></svg>