<svg xmlns="http://www.w3.org/2000/svg" xmlns:xlink="http://www.w3.org/1999/xlink" width="90mm" height="90mm" viewBox="0 0 90 90" xml:space="preserve" style="shape-rendering:geometricPrecision;text-rendering:geometricPrecision;image-rendering:optimizeQuality;fill-rule:evenodd;clip-rule:evenodd"><defs><style type="text/css">.fil0{fill:#8e6556}.fil1{fill:#fff;fill-rule:nonzero}</style></defs><g id="Layer_x0020_1"><metadata id="CorelCorpID_0Corel-Layer"/><g id="_58556496"><polygon id="_58555824" points="32.507 25.997 32.507 51.944 63.602 51.944 63.602 25.997 65.99 28.375 67.769 25.295 59.461 17.448 59.461 6.287 55.41 6.287 55.41 13.675 48.089 6.735 28.352 25.295 30.127 28.375" class="fil0"/><path id="_58846472" d="M62.0201 28.9165l-2.5928 0 0 15.3345 -3.4818 -0.0741 0 -15.2604 -3.2224 0 0 -2.8521 3.1546 -0.0036c-0.3951,-1.4323 -1.115,-2.8506 -2.0804,-3.9596 -0.8618,-0.9898 -1.7533,-1.4816 -2.6669,-1.4816 -0.5433,0 -0.9383,0.2161 -1.1853,0.6481 -0.2469,0.4322 -0.3704,0.9816 -0.3704,1.6483 0,0.568 0.2593,1.173 0.7778,1.815 0.1729,0.1976 0.4322,0.4568 0.7779,0.7778l-3.704 -0.0371c-0.8643,-1.0123 -1.2964,-2.0989 -1.2964,-3.2594 0,-1.3581 0.4506,-2.4879 1.3519,-3.3892 0.9014,-0.9013 2.0928,-1.352 3.5744,-1.352 1.7532,0 3.3459,0.7779 4.7781,2.3336 1.3582,1.4815 2.4693,3.5188 3.3336,6.1116l2.8521 0 0 3.0002zm-19.2892 1.4206c0,-0.3581 -0.1111,-0.6791 -0.3334,-0.9631 -0.2222,-0.2839 -0.5062,-0.4259 -0.8519,-0.4259 -0.3704,0 -0.6914,0.142 -0.963,0.4259 -0.2716,0.284 -0.4075,0.6297 -0.4075,1.0371 0,0.3889 0.1174,0.7841 0.352,1.1791 0.2346,0.4013 0.5494,0.7532 0.9444,1.0619 0.3211,-0.2346 0.5679,-0.4631 0.7408,-0.6977 0.3458,-0.4629 0.5186,-1 0.5186,-1.6173zm11.883 -1.4206l-2.5119 0.0316 0 15.2974 -3.4817 -0.0741 0 -5.0744 -2.9015 1.6667c-0.994,0.5433 -2.0866,1.1236 -3.2781,1.741 -0.4198,0.2222 -0.9753,0.5061 -1.6729,0.8518l-2.5928 -2.4816c0.2963,-0.0988 0.852,-0.3086 1.6668,-0.6297 1.0124,-0.3951 1.7779,-0.7099 2.2965,-0.9445 0.5185,-0.2345 0.9568,-0.4445 1.3149,-0.6297 0.358,-0.1852 0.7346,-0.4012 1.1297,-0.6482l-3.0744 -1.889 -2.4075 1.2964 -2.778 1.1853 -2.2224 -2.6299 2.9261 -0.963 1.852 -0.8519c-0.7161,-0.5433 -1.247,-1.1545 -1.5927,-1.8335 -0.3457,-0.6791 -0.5185,-1.352 -0.5185,-2.0186 0,-1.21 0.4815,-2.2225 1.4445,-3.0373 0.9631,-0.8149 2.0866,-1.2223 3.3706,-1.2223 1.2594,0 2.3645,0.395 3.3151,1.1853 0.9507,0.7901 1.4261,1.7902 1.4261,3.0002 0,0.9877 -0.2717,1.8767 -0.815,2.6669 -0.395,0.5925 -0.8888,1.0741 -1.4815,1.4445l3.3212 1.7779 1.2718 -0.7717 0 -6.3399 -2.4817 -0.0741 0 -2.8891 8.5562 0 -0.0809 2.8575z" class="fil1"/><path id="_58556544" d="M37.1683 48.7673c-0.0754,0 -0.1349,-0.0167 -0.1785,-0.0501 -0.0438,-0.0334 -0.0655,-0.0777 -0.0655,-0.1328l0 -2.7349c0,-0.0523 0.0228,-0.0944 0.0685,-0.1263 0.0455,-0.0319 0.106,-0.0479 0.1815,-0.0479l1.4107 0c0.4405,0 0.7827,0.0784 1.0267,0.2352 0.2441,0.1567 0.366,0.3788 0.366,0.6663 0,0.2874 -0.123,0.5109 -0.369,0.6706 -0.246,0.1597 -0.5872,0.2395 -1.0237,0.2395l-1.1726 0 0 1.0975c0,0.0551 -0.0219,0.0994 -0.0655,0.1328 -0.0437,0.0334 -0.1032,0.0501 -0.1786,0.0501zm1.3691 -1.5765c0.6388,0 0.9583,-0.2047 0.9583,-0.614 0,-0.4036 -0.3195,-0.6054 -0.9583,-0.6054l-1.125 0 0 1.2194 1.125 0zm3.5891 -0.6097c0.1667,-0.0087 0.2501,0.0407 0.2501,0.1481 0,0.0464 -0.0179,0.0835 -0.0536,0.111 -0.0358,0.0276 -0.0973,0.0443 -0.1845,0.0501l-0.1786 0.0131c-0.2659,0.0174 -0.4632,0.0863 -0.5923,0.2068 -0.129,0.1205 -0.1934,0.2621 -0.1934,0.4246l0 1.0583c0,0.058 -0.0218,0.1016 -0.0654,0.1306 -0.0438,0.0291 -0.1013,0.0436 -0.1727,0.0436 -0.0714,0 -0.1299,-0.0153 -0.1756,-0.0458 -0.0456,-0.0304 -0.0685,-0.0733 -0.0685,-0.1284l0 -1.8378c0,-0.0552 0.0238,-0.098 0.0715,-0.1285 0.0476,-0.0304 0.1051,-0.0457 0.1726,-0.0457 0.0635,0 0.117,0.0153 0.1608,0.0457 0.0436,0.0305 0.0654,0.0719 0.0654,0.1242l0 0.2438c0.0833,-0.1277 0.2014,-0.225 0.3542,-0.2917 0.1527,-0.0668 0.3283,-0.106 0.5268,-0.1176l0.0832 -0.0044zm1.8691 2.1949c-0.2738,0 -0.5149,-0.045 -0.7232,-0.135 -0.2083,-0.09 -0.369,-0.2185 -0.4822,-0.3854 -0.113,-0.167 -0.1696,-0.3608 -0.1696,-0.5814 0,-0.2207 0.0566,-0.4144 0.1696,-0.5814 0.1132,-0.1669 0.2739,-0.2954 0.4822,-0.3854 0.2083,-0.09 0.4494,-0.135 0.7232,-0.135 0.2738,0 0.5158,0.045 0.7262,0.135 0.2103,0.09 0.372,0.2185 0.4851,0.3854 0.1131,0.167 0.1696,0.3607 0.1696,0.5814 0,0.2206 -0.0565,0.4144 -0.1696,0.5814 -0.1131,0.1669 -0.2748,0.2954 -0.4851,0.3854 -0.2104,0.09 -0.4524,0.135 -0.7262,0.135zm0 -0.2918c0.2857,0 0.5049,-0.0689 0.6577,-0.2069 0.1528,-0.1379 0.2292,-0.3389 0.2292,-0.6031 0,-0.2584 -0.0773,-0.458 -0.2322,-0.5988 -0.1547,-0.1408 -0.373,-0.2112 -0.6547,-0.2112 -0.2817,0 -0.5,0.0704 -0.6547,0.2112 -0.1549,0.1408 -0.2322,0.3404 -0.2322,0.5988 0,0.2613 0.0764,0.4616 0.2292,0.601 0.1528,0.1393 0.372,0.209 0.6577,0.209zm3.5596 -1.9118c0.2539,0 0.4781,0.0465 0.6726,0.1394 0.1943,0.0929 0.3452,0.2228 0.4523,0.3897 0.1071,0.167 0.1607,0.3608 0.1607,0.5814 0,0.2207 -0.0536,0.413 -0.1607,0.577 -0.1071,0.1641 -0.2569,0.2911 -0.4494,0.3811 -0.1925,0.09 -0.4176,0.135 -0.6755,0.135 -0.2262,0 -0.4237,-0.0363 -0.5923,-0.1089 -0.1686,-0.0726 -0.2967,-0.1756 -0.3839,-0.3092l0 1.0234c0,0.0523 -0.0209,0.0936 -0.0626,0.1241 -0.0415,0.0305 -0.1002,0.0458 -0.1755,0.0458 -0.0754,0 -0.1349,-0.016 -0.1786,-0.0479 -0.0436,-0.032 -0.0655,-0.0726 -0.0655,-0.122l0 -2.626c0,-0.0522 0.0219,-0.0943 0.0655,-0.1263 0.0437,-0.0319 0.1032,-0.0479 0.1786,-0.0479 0.0753,0 0.134,0.016 0.1755,0.0479 0.0417,0.032 0.0626,0.0741 0.0626,0.1263l0 0.2352c0.0872,-0.1336 0.2153,-0.2366 0.3839,-0.3092 0.1686,-0.0726 0.3661,-0.1089 0.5923,-0.1089zm-0.0953 1.9118c0.2817,0 0.5,-0.0697 0.6547,-0.209 0.1549,-0.1394 0.2322,-0.3368 0.2322,-0.5923 0,-0.2555 -0.0773,-0.4551 -0.2322,-0.5988 -0.1547,-0.1437 -0.373,-0.2156 -0.6547,-0.2156 -0.2817,0 -0.499,0.0697 -0.6518,0.2091 -0.1527,0.1393 -0.2291,0.3382 -0.2291,0.5966 0,0.2584 0.0764,0.458 0.2291,0.5988 0.1528,0.1408 0.3701,0.2112 0.6518,0.2112zm4.3452 -0.2308c0.0438,0 0.0814,0.0131 0.1132,0.0392 0.0317,0.0261 0.0476,0.0595 0.0476,0.1002 0,0.0725 -0.0695,0.1393 -0.2083,0.2003 -0.1429,0.0609 -0.2938,0.1067 -0.4524,0.1372 -0.1587,0.0304 -0.3136,0.0457 -0.4644,0.0457 -0.4483,0 -0.8025,-0.0973 -1.0624,-0.2918 -0.2599,-0.1945 -0.3899,-0.4631 -0.3899,-0.8057 0,-0.2177 0.0575,-0.41 0.1726,-0.577 0.1151,-0.1669 0.2768,-0.2968 0.4851,-0.3897 0.2084,-0.0929 0.4454,-0.1394 0.7114,-0.1394 0.377,0 0.6766,0.09 0.8987,0.27 0.2222,0.18 0.3334,0.4239 0.3334,0.7316 0,0.0581 -0.0159,0.1002 -0.0476,0.1263 -0.0317,0.0262 -0.0834,0.0392 -0.1547,0.0392l-1.9167 0c0.0357,0.4994 0.3591,0.7491 0.9701,0.7491 0.1548,0 0.2878,-0.0153 0.3989,-0.0458 0.1111,-0.0304 0.2302,-0.0718 0.3571,-0.1241 0.1032,-0.0435 0.1727,-0.0653 0.2083,-0.0653zm-1.0416 -1.4066c-0.254,0 -0.4573,0.058 -0.6102,0.1742 -0.1526,0.1161 -0.243,0.2801 -0.2707,0.4921l1.6844 0c-0.0079,-0.2149 -0.0813,-0.3796 -0.2202,-0.4943 -0.1388,-0.1147 -0.3333,-0.172 -0.5833,-0.172zm3.3689 -0.2657c0.1667,-0.0087 0.2501,0.0407 0.2501,0.1481 0,0.0464 -0.0179,0.0835 -0.0536,0.111 -0.0358,0.0276 -0.0973,0.0443 -0.1845,0.0501l-0.1786 0.0131c-0.2659,0.0174 -0.4632,0.0863 -0.5923,0.2068 -0.129,0.1205 -0.1934,0.2621 -0.1934,0.4246l0 1.0583c0,0.058 -0.0218,0.1016 -0.0654,0.1306 -0.0438,0.0291 -0.1013,0.0436 -0.1727,0.0436 -0.0714,0 -0.1299,-0.0153 -0.1756,-0.0458 -0.0456,-0.0304 -0.0685,-0.0733 -0.0685,-0.1284l0 -1.8378c0,-0.0552 0.0238,-0.098 0.0715,-0.1285 0.0476,-0.0304 0.1051,-0.0457 0.1726,-0.0457 0.0635,0 0.117,0.0153 0.1608,0.0457 0.0436,0.0305 0.0655,0.0719 0.0655,0.1242l0 0.2438c0.0832,-0.1277 0.2013,-0.225 0.3541,-0.2917 0.1527,-0.0668 0.3283,-0.106 0.5268,-0.1176l0.0832 -0.0044zm2.0061 1.9075c0.1388,0.0087 0.2083,0.0551 0.2083,0.1393 0,0.0494 -0.0249,0.0864 -0.0744,0.1111 -0.0496,0.0246 -0.1241,0.0341 -0.2233,0.0283l-0.1606 -0.0087c-0.3175,-0.0175 -0.5517,-0.0871 -0.7024,-0.2091 -0.1508,-0.1219 -0.2262,-0.3063 -0.2262,-0.553l0 -1.0931 -0.3989 0c-0.0674,0 -0.12,-0.0124 -0.1577,-0.037 -0.0377,-0.0247 -0.0566,-0.0574 -0.0566,-0.098 0,-0.0436 0.0189,-0.0784 0.0566,-0.1045 0.0377,-0.0262 0.0903,-0.0392 0.1577,-0.0392l0.3989 0 0 -0.4921c0,-0.0552 0.0218,-0.098 0.0654,-0.1285 0.0436,-0.0305 0.1032,-0.0457 0.1787,-0.0457 0.0713,0 0.1289,0.0152 0.1725,0.0457 0.0437,0.0305 0.0654,0.0733 0.0654,0.1285l0 0.4921 0.6608 0c0.0635,0 0.1141,0.013 0.1518,0.0392 0.0377,0.0261 0.0566,0.0609 0.0566,0.1045 0,0.0406 -0.0189,0.0733 -0.0566,0.098 -0.0377,0.0246 -0.0883,0.037 -0.1518,0.037l-0.6608 0 0 1.1105c0,0.1597 0.0447,0.2751 0.134,0.3462 0.0894,0.0711 0.2232,0.111 0.4018,0.1198l0.1608 0.0087zm2.7738 -1.7986c0.0436,-0.0697 0.113,-0.1045 0.2083,-0.1045 0.0596,0 0.1131,0.0145 0.1607,0.0435 0.0476,0.0291 0.0715,0.0653 0.0715,0.1089 0,0.0261 -0.0081,0.0493 -0.0239,0.0697l-1.6726 2.639c-0.0198,0.032 -0.0487,0.0567 -0.0862,0.0741 -0.0378,0.0174 -0.0764,0.0261 -0.1162,0.0261 -0.0595,0 -0.1121,-0.0138 -0.1578,-0.0414 -0.0456,-0.0276 -0.0683,-0.0631 -0.0683,-0.1067 0,-0.0232 0.0079,-0.0464 0.0238,-0.0696l0.4166 -0.6576 -1.1786 -1.8639c-0.0159,-0.0204 -0.0238,-0.0421 -0.0238,-0.0654 0,-0.0435 0.0268,-0.0812 0.0804,-0.1132 0.0536,-0.0319 0.1121,-0.0479 0.1756,-0.0479 0.0397,0 0.0783,0.0087 0.1161,0.0261 0.0377,0.0175 0.0664,0.0421 0.0863,0.0741l0.994 1.6331 0.9941 -1.6244z" class="fil1"/></g></g></svg>